<svg id="gtt.la" xmlns="http://www.w3.org/2000/svg" viewBox="0 0 1920 1080" height="56px">
	<title>Artboard 1</title>
	<g id="letters">
		<path id="g" d="M345.2,367.9c15.3-27.9,35.1-48.6,80.1-48.6a26.1,26.1,0,0,1,0,52.2c-27,0-36.9,13.5-43.2,27.9,20.7,25.2,32.4,58.5,32.4,97.2,0,91.8-61.2,151.2-165.6,151.2-38.7,0-72-8.1-97.2-22.5-9.9,8.1-16.2,18-16.2,32.4,0,18.9,12.6,37.8,66.6,37.8h92.7c87.3,0,157.5,37.8,157.5,122.4,0,93.6-84.6,129.6-193.5,129.6-92.7,0-191.7-27-191.7-126,0-41.4,26.1-73.8,68.4-90.9-33.3-10.8-55.8-37.8-55.8-72.9,0-27,14.4-48.6,36-63-21.6-27-32.4-59.4-32.4-98.1,0-91.8,61.2-151.2,165.6-151.2C285.8,345.4,320,353.5,345.2,367.9ZM294.8,749.5H201.2c-52.2,9-75.6,36-75.6,72,0,54.9,63,75.6,134.1,75.6s134.1-20.7,134.1-79.2C393.8,768.4,353.3,749.5,294.8,749.5ZM356,496.6c0-59.4-37.8-99-107.1-99s-107.1,39.6-107.1,99,37.8,99,107.1,99S356,556,356,496.6Z"/>
		<path id="t1" d="M554,263.5c0-15.3,13.5-28.8,28.8-28.8a29,29,0,0,1,28.8,28.8V358h58.5a27,27,0,0,1,0,54H611.6V660.4c0,38.7,21.6,59.4,52.2,59.4,15.3,0,27.9,11.7,27.9,27s-12.6,27-27.9,27c-71.1,0-109.8-47.7-109.8-113.4V412H518.9a27,27,0,0,1,0-54H554Z"/>
		<path id="t2" d="M805.1,263.5c0-15.3,13.5-28.8,28.8-28.8a29,29,0,0,1,28.8,28.8V358h58.5a27,27,0,0,1,0,54H862.7V660.4c0,38.7,21.6,59.4,52.2,59.4,15.3,0,27.9,11.7,27.9,27s-12.6,27-27.9,27c-71.1,0-109.8-47.7-109.8-113.4V412H770a27,27,0,0,1,0-54h35.1Z"/>
		<path id="dot" d="M1004.8,731.5c0-29.7,16.2-43.2,42.3-43.2s42.3,13.5,42.3,43.2-16.2,42.3-42.3,42.3S1004.8,761.2,1004.8,731.5Z"/>
		<path id="l" d="M1235.2,154.6V668.5c0,36,11.7,51.3,36,51.3a27,27,0,0,1,0,54c-60.3,0-93.6-36-93.6-105.3V154.6c0-15.3,13.5-28.8,28.8-28.8A29,29,0,0,1,1235.2,154.6Z"/>
		<path id="a" d="M1420.6,445.3c-9,9.9-15.3,12.6-23.4,12.6a26.1,26.1,0,0,1-26.1-26.1,27.9,27.9,0,0,1,4.5-15.3c25.2-39.6,73.8-71.1,149.4-71.1,104.4,0,162,61.2,162,153V745.9a27.9,27.9,0,0,1-55.8,0V713.5c-22.5,42.3-74.7,64.8-128.7,64.8-95.4,0-155.7-45.9-155.7-128.7,0-79.2,60.3-126.9,157.5-126.9h126.9V498.4c0-61.2-40.5-99-106.2-99C1477.3,399.4,1448.5,413.8,1420.6,445.3Zm210.6,165.6V573.1H1504.3c-58.5,0-99,24.3-99,76.5,0,46.8,32.4,76.5,102.6,76.5C1570.9,726.1,1631.2,687.4,1631.2,610.9Z"/>
	</g>
	<path id="spaceship" d="M1271.2,719.8c-24.3,0-36-15.3-36-51.3V154.6a29,29,0,0,0-28.8-28.8h-.3a29,29,0,0,0-28.8,28.8V668.5c0,36-11.7,51.3-36,51.3a27,27,0,0,0,0,54c27.5,0,49.3-7.5,65-22.2,15.7,14.7,37.5,22.2,64.9,22.2a27,27,0,0,0,0-54Z"/>
</svg>